<?xml version="1.0" encoding="UTF-8" standalone="no"?>
<!-- Uploaded to: SVG Repo, www.svgrepo.com, Generator: SVG Repo Mixer Tools -->

<svg
   version="1.1"
   id="_x32_"
   width="16"
   height="16"
   viewBox="0 0 10.24 10.24"
   xml:space="preserve"
   sodipodi:docname="actor_controller.svg"
   inkscape:version="1.4.2 (ebf0e940, 2025-05-08)"
   xmlns:inkscape="http://www.inkscape.org/namespaces/inkscape"
   xmlns:sodipodi="http://sodipodi.sourceforge.net/DTD/sodipodi-0.dtd"
   xmlns="http://www.w3.org/2000/svg"
   xmlns:svg="http://www.w3.org/2000/svg"><defs
   id="defs2" /><sodipodi:namedview
   id="namedview2"
   pagecolor="#ffffff"
   bordercolor="#000000"
   borderopacity="0.25"
   inkscape:showpageshadow="2"
   inkscape:pageopacity="0.0"
   inkscape:pagecheckerboard="0"
   inkscape:deskcolor="#d1d1d1"
   showgrid="true"
   inkscape:zoom="33.28"
   inkscape:cx="7.03125"
   inkscape:cy="7.6322115"
   inkscape:window-width="2560"
   inkscape:window-height="1303"
   inkscape:window-x="0"
   inkscape:window-y="25"
   inkscape:window-maximized="1"
   inkscape:current-layer="_x32_"><inkscape:grid
     id="grid2"
     units="px"
     originx="0"
     originy="0"
     spacingx="0.64"
     spacingy="0.64"
     empcolor="#0099e5"
     empopacity="0.30196078"
     color="#0099e5"
     opacity="0.14902"
     empspacing="1"
     enabled="true"
     visible="true" /></sodipodi:namedview>
<style
   type="text/css"
   id="style1">
<![CDATA[
	.st0{fill:#000000;}
]]>
</style>
<path
   id="path10"
   style="fill:#4b70ea;fill-opacity:1;stroke:none;stroke-width:0.826848;stroke-linejoin:round;stroke-dasharray:none;stroke-opacity:1"
   d="M 4.1599998,-9.2983246e-8 A 4.1599998,4.1599998 0 0 0 -1.5735626e-7,4.1599999 4.1599998,4.1599998 0 0 0 4.1599998,8.3199999 a 4.1599998,4.1599998 0 0 0 4.16,-4.16 4.1599998,4.1599998 0 0 0 -4.16,-4.159999992983246 z m 0,1.279999992983246 a 2.8799999,2.8800001 0 0 1 2.88,2.88 2.8799999,2.8800001 0 0 1 -2.88,2.88 2.8799999,2.8800001 0 0 1 -2.88,-2.88 2.8799999,2.8800001 0 0 1 2.88,-2.88 z" />
<path
   id="path5"
   style="baseline-shift:baseline;display:inline;overflow:visible;opacity:1;vector-effect:none;fill:#4b70ea;stroke-linejoin:round;enable-background:accumulate;stop-color:#000000;stop-opacity:1"
   d="m 3.7987499,1.9199999 v 0.6775 a 1.5999999,1.6 0 0 0 -0.5375,0.2275 l -0.49125,-0.49125 -0.45125,0.45375 0.49,0.49 a 1.5999999,1.6 0 0 0 -0.2325,0.5625 h -0.6725 v 0.64 h 0.6725 a 1.5999999,1.6 0 0 0 0.2325,0.5625 l -0.49,0.49125 0.45125,0.4525 0.49125,-0.49125 a 1.5999999,1.6 0 0 0 0.5375,0.2275 v 0.6775 h 0.69125 v -0.6775 a 1.5999999,1.6 0 0 0 0.53625,-0.2275 l 0.49125,0.49125 0.4537502,-0.4525 -0.4925002,-0.4925 a 1.5999999,1.6 0 0 0 0.2325,-0.56125 h 0.6737502 v -0.64 H 5.7112499 a 1.5999999,1.6 0 0 0 -0.2325,-0.56125 l 0.4925002,-0.49125 -0.4537502,-0.45375 -0.49125,0.49125 a 1.5999999,1.6 0 0 0 -0.53625,-0.2275 v -0.6775 z m 0.345,1.28 a 0.95999992,0.96000004 0 0 1 0.96,0.96 0.95999992,0.96000004 0 0 1 -0.96,0.96 0.95999992,0.96000004 0 0 1 -0.96,-0.96 0.95999992,0.96000004 0 0 1 0.96,-0.96 z" /><path
   style="fill:#4b70ea;fill-opacity:1;stroke:none;stroke-width:0.64;stroke-linejoin:round;stroke-dasharray:none;stroke-opacity:1"
   d="m 1.9199999,7.04 v 3.2 h 3.84 V 8.32 H 8.32 V 4.4799999 C 8.32,4.4799999 5.4399999,7.68 5.4399999,7.68 Z"
   id="path11" /><path
   style="fill:#4b70ea;fill-opacity:1;stroke:none;stroke-width:0.64;stroke-linejoin:round;stroke-dasharray:none;stroke-opacity:1"
   d="m 10.24,6.3999999 -1.9200002,-2.56 H 7.5732686 v 2.56 z"
   id="path12"
   sodipodi:nodetypes="ccccc" /></svg>
